<?xml version="1.0" encoding="utf-8"?>
<!-- Generator: Adobe Illustrator 23.1.1, SVG Export Plug-In . SVG Version: 6.00 Build 0)  -->
<svg version="1.1" id="Capa_1" xmlns="http://www.w3.org/2000/svg" xmlns:xlink="http://www.w3.org/1999/xlink" x="0px" y="0px"
	 viewBox="0 0 566.9 566.9" style="enable-background:new 0 0 566.9 566.9;" xml:space="preserve">
<style type="text/css">
	.st0{fill:#FFFFFF;}
	.st1{fill:url(#shape_3_1_);}
	.st2{fill:url(#SVGID_1_);}
	.st3{fill-rule:evenodd;clip-rule:evenodd;fill:#FFFFFF;}
</style>
<g id="WhatsApp_Logo">
	<g id="shape_4">
		
			<image style="overflow:visible;opacity:6.000000e-02;enable-background:new    ;" width="496" height="497" xlink:href="E3745BA70F287AF5.png"  transform="matrix(1 0 0 1 35.4646 34.9646)">
		</image>
		<g>
			
				<image style="overflow:visible;opacity:0.15;enable-background:new    ;" width="438" height="440" xlink:href="E3745BA70F287AF7.png"  transform="matrix(1 0 0 1 63.4646 61.9646)">
			</image>
			<g>
				<path class="st0" d="M73.3,488.3l29.6-108c-18.2-31.6-27.9-67.5-27.8-104.2c0-115,93.6-208.5,208.6-208.5
					c55.8,0,108.2,21.7,147.5,61.1c39.4,39.4,61,91.8,61,147.5c0,115-93.6,208.5-208.6,208.5c0,0,0,0,0,0h-0.1
					c-34.9,0-69.2-8.8-99.7-25.4L73.3,488.3z M189,421.6l6.3,3.8c26.6,15.8,57.1,24.1,88.2,24.2h0.1c95.5,0,173.3-77.7,173.3-173.3
					c0-46.3-18-89.9-50.7-122.6s-76.2-50.8-122.6-50.8c-95.6,0-173.4,77.7-173.4,173.3c0,32.7,9.1,64.6,26.5,92.2l4.1,6.6l-17.5,64
					L189,421.6z"/>
			</g>
		</g>
	</g>
	
		<linearGradient id="shape_3_1_" gradientUnits="userSpaceOnUse" x1="282.7823" y1="84.9033" x2="282.7823" y2="491.1033" gradientTransform="matrix(1 0 0 -1 0 565.9589)">
		<stop  offset="0" style="stop-color:#20B038"/>
		<stop  offset="1" style="stop-color:#60D66A"/>
	</linearGradient>
	<path id="shape_3" class="st1" d="M80.6,481.1l28.6-104.3c-17.6-30.5-26.9-65.2-26.9-100.6c0-111,90.4-201.3,201.3-201.3
		c53.9,0,104.4,21,142.4,59c38,38,58.9,88.6,58.9,142.4c0,111-90.4,201.3-201.3,201.3c0,0,0,0,0,0h-0.1c-33.7,0-66.8-8.5-96.2-24.5
		L80.6,481.1z"/>
	<g id="shape_2">
		
			<image style="overflow:visible;opacity:4.000000e-02;enable-background:new    ;" width="444" height="446" xlink:href="E3745BA70F287AF2.png"  transform="matrix(1 0 0 1 60.4646 55.9646)">
		</image>
		<g>
			<g>
				
					<linearGradient id="SVGID_1_" gradientUnits="userSpaceOnUse" x1="282.7774" y1="77.6232" x2="282.7774" y2="498.3932" gradientTransform="matrix(1 0 0 -1 0 565.9589)">
					<stop  offset="0" style="stop-color:#F9F9F9"/>
					<stop  offset="1" style="stop-color:#FFFFFF"/>
				</linearGradient>
				<path class="st2" d="M73.3,488.3l29.6-108c-18.2-31.6-27.9-67.5-27.8-104.2c0-115,93.6-208.5,208.6-208.5
					c55.8,0,108.2,21.7,147.5,61.1c39.4,39.4,61,91.8,61,147.5c0,115-93.6,208.5-208.6,208.5c0,0,0,0,0,0h-0.1
					c-34.9,0-69.2-8.8-99.7-25.4L73.3,488.3z M189,421.6l6.3,3.8c26.6,15.8,57.1,24.1,88.2,24.2h0.1c95.5,0,173.3-77.7,173.3-173.3
					c0-46.3-18-89.9-50.7-122.6s-76.2-50.8-122.6-50.8c-95.6,0-173.4,77.7-173.4,173.3c0,32.7,9.1,64.6,26.5,92.2l4.1,6.6l-17.5,64
					L189,421.6z"/>
			</g>
		</g>
	</g>
	<g id="shape_1">
		
			<image style="overflow:visible;opacity:6.000000e-02;enable-background:new    ;" width="237" height="222" xlink:href="E3745BA70F287AF3.png"  transform="matrix(1 0 0 1 165.4645 168.9646)">
		</image>
		<g>
			<path class="st3" d="M231.5,188.9c-3.9-8.7-8-8.9-11.7-9c-3-0.1-6.5-0.1-10-0.1c-3.5,0-9.1,1.3-13.9,6.5s-18.2,17.8-18.2,43.5
				c0,25.6,18.7,50.4,21.3,53.9c2.6,3.5,36,57.8,89,78.7c44,17.4,53,13.9,62.5,13s30.8-12.6,35.2-24.8c4.3-12.2,4.3-22.6,3-24.8
				c-1.3-2.2-4.8-3.5-10-6.1c-5.2-2.6-30.8-15.2-35.6-17s-8.2-2.6-11.7,2.6c-3.5,5.2-13.5,17-16.5,20.4c-3,3.5-6.1,3.9-11.3,1.3
				c-5.2-2.6-22-8.1-41.9-25.9c-15.5-13.8-26-30.9-29-36.1c-3-5.2-0.3-8,2.3-10.6c2.3-2.3,5.2-6.1,7.8-9.1c2.6-3,3.5-5.2,5.2-8.7
				c1.7-3.5,0.9-6.5-0.4-9.1S236.2,199.2,231.5,188.9z"/>
		</g>
	</g>
</g>
</svg>
