<svg width="84" height="24" viewBox="0 0 84 24" fill="none" xmlns="http://www.w3.org/2000/svg">
<path fill-rule="evenodd" clip-rule="evenodd" d="M56.9533 23.5333C57.0713 23.4788 57.1425 23.3549 57.1307 23.2243L57.1256 20.4178C57.1256 19.8668 56.9726 19.4497 56.6748 19.1602C56.377 18.8708 55.9017 18.7297 55.2601 18.7297C54.9675 18.7317 54.6753 18.7513 54.385 18.7884C54.0934 18.8264 53.8073 18.8987 53.5323 19.0037C53.4528 19.0294 53.4252 19.0933 53.4528 19.1963L53.5762 19.7308C53.5935 19.7844 53.616 19.8215 53.6466 19.8338C53.6947 19.8429 53.7443 19.839 53.7904 19.8225C53.9901 19.7611 54.1949 19.718 54.4023 19.6937C54.6294 19.6569 54.8588 19.6377 55.0888 19.6361C55.2519 19.6306 55.4148 19.6518 55.5712 19.6989C55.6813 19.7283 55.7818 19.7861 55.8629 19.8668C55.9328 19.94 55.983 20.0301 56.0088 20.1284C56.0338 20.2371 56.0465 20.3484 56.0465 20.46V20.6186H55.0021C54.6826 20.6105 54.3642 20.6578 54.0607 20.7587C53.8305 20.8389 53.6181 20.9638 53.4354 21.1264C53.277 21.2725 53.1583 21.4573 53.0907 21.663C53.0173 21.8655 52.9803 22.0797 52.9816 22.2953C52.9794 22.4999 53.0104 22.7034 53.0733 22.8978C53.138 23.09 53.2512 23.2619 53.4018 23.3963C53.5894 23.554 53.8086 23.6689 54.0443 23.7331C54.3746 23.8253 54.7167 23.8673 55.0592 23.8577C55.2081 23.8577 55.3682 23.8567 55.5304 23.8464C55.6926 23.8361 55.8578 23.8186 56.0312 23.7918C56.1949 23.7692 56.3568 23.7348 56.5157 23.6888C56.6653 23.6486 56.8116 23.5966 56.9533 23.5333ZM55.1439 21.4518H56.0343L56.0374 22.8288C55.9524 22.8618 55.8647 22.887 55.7753 22.904C55.6773 22.9226 55.5886 22.937 55.4999 22.9493C55.4188 22.9617 55.3371 22.969 55.2551 22.971C55.1786 22.9813 55.1143 22.9813 55.0705 22.9813C54.8224 22.9917 54.5761 22.9356 54.3565 22.8185C54.1811 22.7135 54.0883 22.5281 54.0883 22.2562C54.081 22.1022 54.1163 21.9492 54.1903 21.8144C54.26 21.7138 54.3522 21.6312 54.4595 21.5734C54.5679 21.5178 54.6854 21.4829 54.8063 21.4704C54.9184 21.4582 55.0311 21.452 55.1439 21.4518Z" fill="#43B02A"/>
<path fill-rule="evenodd" clip-rule="evenodd" d="M63.8857 23.5333C64.0026 23.4778 64.0724 23.3542 64.0601 23.2243L64.0642 20.4198C64.0632 19.8688 63.9214 19.4517 63.6205 19.1623C63.3196 18.8729 62.8433 18.7318 62.1977 18.7318C61.9058 18.734 61.6142 18.7536 61.3246 18.7905C61.0327 18.8281 60.7462 18.9 60.4709 19.0047C60.3883 19.0305 60.3597 19.0943 60.3883 19.1973L60.5188 19.7319C60.5237 19.7751 60.5487 19.8134 60.5861 19.8348C60.6342 19.844 60.6839 19.8401 60.73 19.8235C60.9274 19.7625 61.1298 19.7194 61.3348 19.6948C61.5629 19.6581 61.7933 19.6388 62.0243 19.6371C62.1867 19.6315 62.349 19.6527 62.5047 19.6999C62.6152 19.7311 62.7167 19.7887 62.8005 19.8678C62.8707 19.9401 62.9198 20.0307 62.9422 20.1294C62.9669 20.2382 62.9793 20.3494 62.979 20.461V20.6197H61.9355C61.6161 20.6112 61.2976 20.6586 60.9941 20.7597C60.7646 20.84 60.5529 20.9649 60.3709 21.1274C60.2132 21.2742 60.0946 21.4587 60.0262 21.664C59.9531 21.8666 59.9165 22.0808 59.9181 22.2964C59.916 22.5006 59.9456 22.7039 60.0058 22.8989C60.0729 23.0901 60.1861 23.2614 60.3352 23.3974C60.5239 23.5533 60.7428 23.6677 60.9778 23.7331C61.3099 23.825 61.6536 23.867 61.9978 23.8577C62.1436 23.8577 62.2874 23.8567 62.4578 23.8464C62.6281 23.8361 62.7872 23.8186 62.9626 23.7918C63.1257 23.7696 63.287 23.7351 63.4451 23.6888C63.5957 23.6486 63.743 23.5966 63.8857 23.5333ZM62.0778 21.4518H62.9662L62.9693 22.8288C62.8836 22.8629 62.7948 22.8881 62.7041 22.904C62.6103 22.9226 62.5195 22.937 62.4348 22.9493C62.3527 22.9616 62.27 22.9689 62.187 22.971C62.1084 22.9813 62.0462 22.9813 62.0065 22.9813C61.7582 22.9938 61.5113 22.9375 61.2925 22.8185C61.1058 22.7135 61.0181 22.5281 61.0181 22.2562C61.0118 22.1023 61.0471 21.9496 61.1201 21.8144C61.1924 21.7145 61.2858 21.6322 61.3935 21.5734C61.5004 21.5188 61.6161 21.4839 61.7351 21.4704C61.849 21.4581 61.9634 21.4519 62.0778 21.4518Z" fill="#43B02A"/>
<path fill-rule="evenodd" clip-rule="evenodd" d="M73.2354 19.2818C72.8866 18.9131 72.3579 18.7287 71.6494 18.7287L71.6422 18.7266C71.3354 18.7231 71.031 18.7827 70.7477 18.9017C70.4768 19.0098 70.2352 19.1813 70.0429 19.4023C69.8398 19.6424 69.6855 19.9207 69.589 20.2211C69.4666 20.574 69.4075 20.9461 69.4146 21.32C69.4146 22.2016 69.6207 22.8505 70.0113 23.2522C70.402 23.6538 70.9792 23.8598 71.7279 23.8598C71.996 23.8575 72.2633 23.8307 72.5265 23.7795C72.7992 23.725 73.0604 23.6233 73.2986 23.4787L73.32 23.4674C73.3883 23.4226 73.4079 23.3306 73.3639 23.2614L73.1181 22.731C73.0742 22.6466 73.0079 22.6311 72.9059 22.6723C72.7469 22.7495 72.5804 22.8103 72.4092 22.8536C72.2182 22.9026 72.0219 22.9272 71.8248 22.9267C71.6526 22.9272 71.4811 22.9047 71.3148 22.8597C71.1652 22.8155 71.0263 22.7405 70.9068 22.6393C70.7863 22.528 70.6922 22.3907 70.6314 22.2377C70.5574 22.0405 70.5227 21.8305 70.5294 21.6197H72.9988C73.1 21.6207 73.2009 21.6076 73.2986 21.5806C73.3866 21.5621 73.4672 21.5176 73.5302 21.4529C73.6046 21.3841 73.661 21.2977 73.6944 21.2016C73.7306 21.0709 73.7478 20.9356 73.7454 20.7999C73.7454 20.1541 73.572 19.6495 73.2354 19.2818ZM70.8839 19.9996C71.0721 19.7629 71.3585 19.6279 71.659 19.634L71.6641 19.635C71.8418 19.6295 72.0186 19.6614 72.1833 19.7288C72.3061 19.7866 72.4116 19.8762 72.4893 19.9883C72.569 20.1012 72.6246 20.2295 72.6525 20.3653C72.6881 20.5189 72.7059 20.6761 72.7055 20.8339H70.5636C70.568 20.6808 70.5984 20.5296 70.6534 20.3869C70.7099 20.2465 70.7876 20.1159 70.8839 19.9996Z" fill="#43B02A"/>
<path fill-rule="evenodd" clip-rule="evenodd" d="M82.639 23.5333C82.7563 23.4781 82.8265 23.3544 82.8144 23.2243L82.8236 20.4198C82.8236 19.8688 82.6859 19.4517 82.3799 19.1623C82.0739 18.8729 81.5946 18.7318 80.952 18.7318C80.6604 18.7337 80.3692 18.7534 80.0799 18.7905C79.7882 18.8287 79.5017 18.9006 79.2262 19.0047C79.1395 19.0305 79.115 19.0943 79.1395 19.1973L79.2711 19.7319C79.2765 19.7752 79.3018 19.8134 79.3394 19.8348C79.3889 19.8439 79.4398 19.84 79.4873 19.8235C79.6824 19.7629 79.8824 19.7198 80.085 19.6948C80.3152 19.6581 80.5477 19.6389 80.7806 19.6371C80.9431 19.6318 81.1053 19.653 81.261 19.6999C81.3703 19.7306 81.4702 19.7883 81.5517 19.8678C81.6192 19.9417 81.6669 20.0317 81.6904 20.1294C81.7163 20.238 81.7283 20.3494 81.7261 20.461V20.6196H80.6858C80.366 20.611 80.0471 20.6584 79.7433 20.7597C79.5133 20.8381 79.3015 20.9633 79.1212 21.1274C78.9607 21.2735 78.8394 21.458 78.7683 21.664C78.6973 21.867 78.6627 22.0811 78.6663 22.2964C78.665 22.5008 78.696 22.7042 78.7581 22.8989C78.8245 23.0904 78.9378 23.2619 79.0875 23.3974C79.2748 23.5525 79.4918 23.6668 79.725 23.7331C80.0572 23.8244 80.4008 23.8664 80.7449 23.8577C80.8969 23.8577 81.0581 23.8567 81.2151 23.8464C81.3722 23.8361 81.5446 23.8186 81.7139 23.7918C81.878 23.7694 82.0402 23.735 82.1994 23.6888C82.3497 23.6485 82.4967 23.5965 82.639 23.5333ZM80.8235 21.4518H81.7201L81.718 22.8288C81.6315 22.8614 81.5425 22.8866 81.4518 22.904C81.361 22.9226 81.2641 22.937 81.1774 22.9494C81.096 22.9619 81.0139 22.9691 80.9316 22.971C80.8717 22.9776 80.8114 22.981 80.7511 22.9813C80.503 22.992 80.2566 22.9358 80.0371 22.8185C79.8556 22.7135 79.7679 22.5281 79.7679 22.2562C79.7627 22.1018 79.7998 21.9489 79.8749 21.8144C79.9438 21.7141 80.035 21.6316 80.1412 21.5734C80.2502 21.5176 80.3684 21.4827 80.49 21.4704C80.6008 21.4583 80.7121 21.4521 80.8235 21.4518Z" fill="#43B02A"/>
<path d="M53.1677 17.2425C53.1463 17.2065 53.0902 17.1921 53.0045 17.1921H50.3924C50.1245 17.1842 49.8579 17.2319 49.6091 17.3321C49.4122 17.4134 49.2374 17.5408 49.0991 17.7039C48.9675 17.8608 48.8727 18.0457 48.8217 18.2447C48.7709 18.453 48.7449 18.6666 48.7441 18.8811V23.5591C48.7441 23.6394 48.7615 23.694 48.8023 23.7187C48.8507 23.7472 48.9065 23.7604 48.9624 23.7568H49.2521C49.4561 23.7424 49.8763 23.6394 49.8763 23.0297V20.8668H52.6608C52.7444 20.8668 52.7934 20.8493 52.8178 20.8123C52.8435 20.7636 52.8552 20.7087 52.8515 20.6536V20.1201C52.8593 20.062 52.8474 20.0028 52.8178 19.9523C52.7944 19.9203 52.7444 19.9039 52.6608 19.9039H49.8753V18.8111C49.863 18.6464 49.9158 18.4835 50.0221 18.3579C50.1139 18.2549 50.2833 18.2014 50.5178 18.2014H53.0045C53.0891 18.2014 53.1381 18.1839 53.1605 18.1509C53.195 18.103 53.2106 18.044 53.2044 17.9851V17.4063C53.206 17.3498 53.1934 17.2938 53.1677 17.2436" fill="#43B02A"/>
<path fill-rule="evenodd" clip-rule="evenodd" d="M68.5322 19.4363C68.7088 19.6771 68.8373 19.9503 68.9106 20.2406L68.9096 20.2417C68.9954 20.5689 69.0375 20.9063 69.0351 21.2448C69.0398 21.5958 68.9952 21.9457 68.9025 22.284C68.82 22.587 68.6766 22.8696 68.4812 23.1141C68.2835 23.3532 68.0325 23.5416 67.7489 23.6641C67.4116 23.7979 67.0515 23.863 66.6892 23.8557C66.363 23.8573 66.0372 23.8318 65.7151 23.7795C65.3978 23.7395 65.0883 23.6513 64.7971 23.5179C64.7518 23.5035 64.7128 23.4736 64.687 23.4334C64.6669 23.3914 64.6574 23.3451 64.6595 23.2985V17.6164C64.6717 17.0334 65.0674 16.9253 65.2714 16.9109H65.5672C65.614 16.9045 65.6616 16.9146 65.7018 16.9397C65.7355 16.9776 65.7514 17.0282 65.7457 17.0788V18.8986C65.9394 18.8385 66.1381 18.7961 66.3393 18.772C66.5286 18.7452 66.7194 18.7314 66.9105 18.7308C67.2419 18.7204 67.5713 18.7855 67.8743 18.9213C68.1316 19.0368 68.3573 19.2135 68.5322 19.4363ZM67.571 22.559C67.6891 22.4071 67.7781 22.2342 67.8331 22.0492H67.829C67.8949 21.804 67.9245 21.5503 67.9167 21.2963C67.9167 20.7443 67.8147 20.3343 67.6057 20.0686C67.3957 19.7985 67.0692 19.6476 66.7295 19.6639C66.588 19.6667 66.4467 19.677 66.3062 19.6948C66.115 19.7104 65.9265 19.7505 65.7453 19.8142V22.8113C65.8944 22.8612 66.0488 22.8936 66.2053 22.9081C66.3469 22.9239 66.4891 22.9325 66.6316 22.9339C66.8128 22.9368 66.993 22.9057 67.163 22.8422C67.3204 22.7839 67.4607 22.6865 67.571 22.559Z" fill="#43B02A"/>
<path d="M76.128 23.5312L76.0607 23.0091C76.0648 22.97 76.0496 22.9315 76.0199 22.9061C75.9881 22.8908 75.9522 22.8868 75.9179 22.8948C75.8771 22.8948 75.8159 22.904 75.7578 22.9133C75.6996 22.9226 75.6293 22.9133 75.5854 22.9133C75.4934 22.9264 75.4009 22.8933 75.3376 22.8247C75.2847 22.724 75.2626 22.6096 75.2743 22.4962V17.0685C75.2798 17.0205 75.2633 16.9727 75.2294 16.9387C75.1827 16.9154 75.1304 16.9058 75.0785 16.9109H74.7868C74.5828 16.9253 74.1962 17.0334 74.1748 17.5906V22.7619C74.1748 23.1646 74.2564 23.4478 74.4176 23.6116C74.5787 23.7753 74.8327 23.8526 75.1805 23.8526C75.2998 23.8526 75.4416 23.8526 75.6007 23.833C75.7452 23.8185 75.8869 23.7839 76.0219 23.73C76.0658 23.715 76.1044 23.6874 76.1331 23.6507C76.1459 23.6102 76.1459 23.5666 76.1331 23.5261" fill="#43B02A"/>
<path d="M78.5113 23.5313L78.446 23.0091C78.4464 22.9701 78.4305 22.9327 78.4022 22.9061C78.3702 22.8916 78.3345 22.8876 78.3002 22.8948C78.2563 22.8948 78.1982 22.904 78.138 22.9133C78.0778 22.9226 78.0125 22.9133 77.9677 22.9133C77.8742 22.9264 77.7801 22.8934 77.7147 22.8247C77.6651 22.7229 77.644 22.6093 77.6535 22.4962V17.0685C77.6535 16.9995 77.6392 16.9583 77.6107 16.9387C77.5659 16.9151 77.5151 16.9054 77.4648 16.9109H77.1588C76.9549 16.9253 76.555 17.0376 76.5469 17.6318V22.7619C76.5469 23.1646 76.6244 23.4478 76.7845 23.6116C76.9447 23.7754 77.2017 23.8526 77.5475 23.8526C77.6749 23.8526 77.8126 23.8526 77.9707 23.833C78.1171 23.818 78.2608 23.7834 78.3981 23.73C78.4402 23.7128 78.4776 23.6856 78.5072 23.6507C78.5156 23.6096 78.5156 23.5672 78.5072 23.5261" fill="#43B02A"/>
<path d="M59.775 23.5312L59.7107 23.0091C59.7015 22.9545 59.6924 22.9236 59.6699 22.9061C59.6361 22.8905 59.5981 22.8865 59.5618 22.8947C59.52 22.8947 59.4598 22.904 59.3966 22.9133C59.3333 22.9226 59.2762 22.9133 59.2262 22.9133C59.1336 22.9265 59.0404 22.8935 58.9764 22.8247C58.9274 22.7701 58.908 22.6568 58.908 22.4962V17.0685C58.908 16.9995 58.8999 16.9583 58.8703 16.9387C58.8267 16.9156 58.7774 16.906 58.7285 16.9109H58.4225C58.2185 16.9253 57.8105 17.0376 57.8105 17.6318V22.7619C57.8105 23.1646 57.8932 23.4478 58.0502 23.6116C58.2073 23.7753 58.4643 23.8526 58.8132 23.8526C58.9345 23.8526 59.0773 23.8526 59.2344 23.833C59.3801 23.8182 59.5232 23.7836 59.6597 23.73C59.7059 23.7253 59.7469 23.6978 59.7691 23.6566C59.7913 23.6154 59.792 23.5658 59.7709 23.524" fill="#43B02A"/>
<path d="M83.6296 13.0744L82.2241 11.6572L80.0731 9.49438L80.3535 9.43258C82.27 9.02988 83.5552 7.81045 83.5593 5.46943C83.5593 2.73601 81.2888 1.22202 79.0225 1.2179H74.2909C74.246 1.21995 74.2019 1.23116 74.1614 1.25085C74.1277 1.27248 74.1094 1.32604 74.1094 1.41358V13.3123C74.1277 13.3937 74.1502 13.4452 74.1869 13.4606C74.2391 13.4802 74.2957 13.4841 74.3501 13.472H74.3766L76.3431 13.1836C76.3759 13.1816 76.4077 13.1718 76.4359 13.1547C76.4736 13.1341 76.4869 13.0785 76.4869 12.9941V3.5548H79.1123C80.2485 3.5548 81.2317 4.36638 81.2348 5.44677C81.2378 6.52716 80.4453 7.06993 79.3203 7.34698C78.1759 7.64257 77.6588 8.44592 77.6527 9.32032C77.6606 9.91831 77.8869 10.4923 78.2881 10.9322C78.4853 11.1877 78.7003 11.4287 78.9317 11.6531L78.9511 11.6686L82.0987 14.8974C82.2959 15.0229 82.5245 15.0891 82.7576 15.0879C83.4169 15.0897 83.9552 14.5558 83.9652 13.8901C83.972 13.5796 83.8491 13.2806 83.6266 13.0662" fill="#43B02A"/>
<path d="M58.0856 9.97762C57.8866 9.84843 57.6551 9.77945 57.4185 9.77885C57.0949 9.77997 56.786 9.91512 56.5638 10.1527C56.4945 10.2361 56.3404 10.3783 56.2803 10.439C54.8179 11.8067 52.6333 12.0256 50.9332 10.9748C49.2332 9.92407 48.4324 7.85996 48.9734 5.92277C49.5143 3.98558 51.2649 2.64789 53.2581 2.64866C54.0741 2.64866 55.1961 2.79594 56.1681 3.7373C56.1771 3.74726 56.1883 3.75501 56.2007 3.75995C56.252 3.78649 56.3113 3.79274 56.367 3.77746L58.4691 3.46848C58.6802 3.43759 58.5772 3.2728 58.5772 3.2728C58.2039 2.58481 56.6474 0.171689 53.045 0.206707C49.2446 0.243784 46.4 3.25632 46.3643 7.17107C46.3709 10.0171 48.0923 12.5726 50.7113 13.6243C53.3304 14.676 56.3196 14.0121 58.26 11.9479C58.3334 11.8561 58.3986 11.7578 58.4548 11.6543C58.573 11.4516 58.6367 11.2212 58.6394 10.9859C58.6318 10.5776 58.4249 10.1994 58.0866 9.97556" fill="#43B02A"/>
<path d="M71.0946 0.746193C70.1134 0.746193 69.5535 1.44551 69.1169 2.36833L66.4294 8.13694C66.4294 8.13694 66.4059 8.20698 66.3631 8.20698C66.3202 8.20698 66.2896 8.13694 66.2896 8.13694L63.9937 4.19336L63.2859 2.96671C63.2451 2.89668 63.2012 2.85754 63.1594 2.85445C63.1375 2.85041 63.115 2.85041 63.0931 2.85445L59.9588 3.29629C59.9287 3.30113 59.8999 3.31199 59.8741 3.32822C59.8415 3.34676 59.8262 3.4034 59.8262 3.48992V13.888C59.8262 14.5519 60.3591 15.09 61.0165 15.09C61.6738 15.09 62.2067 14.5519 62.2067 13.888V5.89376L65.6236 11.6613L66.3539 12.8839C66.3539 12.8839 66.3804 12.9282 66.4192 12.9282C66.4579 12.9282 66.4732 12.8839 66.4732 12.8839L67.0679 11.6562L70.5112 4.60739V13.8489H70.5184C70.5316 13.9282 70.5541 13.9766 70.5938 13.9962C70.6387 14.0116 70.6865 14.0165 70.7336 14.0106H70.7509L72.7347 13.7243C72.7725 13.7212 72.8093 13.7104 72.8428 13.6924C72.8816 13.6707 72.8898 13.6203 72.8949 13.5451H72.902V2.56195C72.8866 1.56206 72.0849 0.75668 71.0946 0.746193" fill="#43B02A"/>
<path d="M35.6992 0.261372C35.6992 0.174764 35.7694 0.104553 35.856 0.104553C35.9426 0.104553 36.0129 0.174763 36.0129 0.261372V23.739C36.0129 23.8256 35.9426 23.8959 35.856 23.8959C35.7694 23.8959 35.6992 23.8256 35.6992 23.739V0.261372Z" fill="#CFDBE6"/>
<path fill-rule="evenodd" clip-rule="evenodd" d="M16.0611 24C11.9384 24 0 20.7943 0 16.8393C0 12.8883 11.9384 9.68356 16.0611 9.68356C20.1789 9.68356 23.5195 12.8883 23.5195 16.8393C23.5195 20.7943 20.1789 24 16.0611 24Z" fill="#007A33"/>
<path fill-rule="evenodd" clip-rule="evenodd" d="M12.3818 12.3742C9.70253 10.8094 3.24817 4.19416 4.87986 1.62253C6.50673 -0.949101 15.5969 1.48951 18.281 3.05909C20.9602 4.61537 21.8195 7.97179 20.1878 10.5434C18.561 13.1199 15.0659 13.9397 12.3818 12.3742Z" fill="#C3D600"/>
<path fill-rule="evenodd" clip-rule="evenodd" d="M10.126 10.645C10.98 11.4093 11.778 12.0206 12.3834 12.3741C14.9833 13.8906 18.3441 13.169 20.0309 10.7806C18.8813 10.0857 17.5202 9.68356 16.0615 9.68356C14.699 9.68356 12.4828 10.0336 10.126 10.645Z" fill="#154734"/>
</svg>
