<svg width="264" height="48" viewBox="0 0 264 48" fill="none" xmlns="http://www.w3.org/2000/svg">
<path fill-rule="evenodd" clip-rule="evenodd" d="M212.259 46.1051C212.485 46.0006 212.621 45.7632 212.599 45.5129L212.589 40.1337C212.589 39.0776 212.296 38.2781 211.727 37.7234C211.157 37.1687 210.248 36.8983 209.02 36.8983C208.461 36.902 207.902 36.9396 207.346 37.0108C206.788 37.0836 206.241 37.222 205.715 37.4234C205.563 37.4727 205.51 37.5951 205.563 37.7925L205.799 38.817C205.832 38.9197 205.875 38.9907 205.934 39.0144C206.026 39.0319 206.12 39.0244 206.209 38.9927C206.591 38.875 206.983 38.7924 207.379 38.746C207.814 38.6754 208.253 38.6385 208.693 38.6354C209.005 38.6248 209.316 38.6655 209.615 38.7558C209.826 38.8121 210.018 38.923 210.174 39.0776C210.307 39.218 210.403 39.3906 210.453 39.579C210.5 39.7874 210.525 40.0007 210.525 40.2146V40.5186H208.527C207.916 40.503 207.306 40.5938 206.726 40.7871C206.285 40.9409 205.879 41.1803 205.53 41.4918C205.227 41.772 204.999 42.1261 204.87 42.5203C204.73 42.9085 204.659 43.319 204.661 43.7323C204.657 44.1244 204.717 44.5145 204.837 44.8871C204.961 45.2555 205.177 45.5849 205.465 45.8426C205.824 46.1448 206.244 46.365 206.695 46.4881C207.326 46.6648 207.981 46.7453 208.636 46.7269C208.921 46.7269 209.227 46.725 209.537 46.7052C209.848 46.6855 210.164 46.6519 210.495 46.6006C210.809 46.5573 211.118 46.4913 211.422 46.4032C211.709 46.3261 211.988 46.2264 212.259 46.1051ZM208.798 42.1156H210.501L210.507 44.7549C210.345 44.8181 210.177 44.8663 210.006 44.899C209.818 44.9345 209.649 44.9622 209.479 44.9859C209.324 45.0096 209.167 45.0234 209.011 45.0273C208.864 45.0471 208.741 45.0471 208.657 45.0471C208.183 45.067 207.712 44.9594 207.292 44.7352C206.956 44.5338 206.778 44.1785 206.778 43.6573C206.764 43.3622 206.832 43.069 206.974 42.8105C207.107 42.6177 207.283 42.4594 207.489 42.3486C207.696 42.242 207.921 42.1751 208.152 42.1512C208.367 42.1278 208.582 42.1159 208.798 42.1156Z" fill="#43B02A"/>
<path fill-rule="evenodd" clip-rule="evenodd" d="M225.522 46.1051C225.746 45.9988 225.879 45.7618 225.856 45.5129L225.864 40.1377C225.862 39.0815 225.59 38.2821 225.015 37.7274C224.439 37.1727 223.528 36.9022 222.293 36.9022C221.734 36.9064 221.177 36.944 220.623 37.0147C220.064 37.0867 219.516 37.2245 218.989 37.4253C218.831 37.4747 218.777 37.5971 218.831 37.7945L219.081 38.819C219.09 38.9019 219.138 38.9752 219.21 39.0164C219.302 39.0339 219.397 39.0264 219.485 38.9947C219.863 38.8778 220.25 38.7952 220.642 38.7479C221.078 38.6776 221.519 38.6407 221.961 38.6374C222.272 38.6266 222.582 38.6673 222.88 38.7578C223.092 38.8175 223.286 38.9279 223.446 39.0796C223.58 39.2182 223.674 39.3917 223.717 39.581C223.764 39.7895 223.788 40.0027 223.787 40.2166V40.5206H221.791C221.18 40.5044 220.571 40.5952 219.99 40.7891C219.551 40.9429 219.146 41.1823 218.798 41.4938C218.496 41.7752 218.27 42.1289 218.139 42.5223C217.999 42.9106 217.929 43.3211 217.932 43.7343C217.928 44.1258 217.984 44.5154 218.1 44.8891C218.228 45.2557 218.445 45.584 218.73 45.8446C219.091 46.1435 219.51 46.3627 219.959 46.4881C220.594 46.6643 221.252 46.7447 221.91 46.7269C222.189 46.7269 222.465 46.725 222.79 46.7052C223.116 46.6855 223.421 46.6519 223.756 46.6006C224.068 46.5579 224.377 46.4919 224.679 46.4032C224.967 46.3261 225.249 46.2265 225.522 46.1051ZM222.063 42.1156H223.762L223.768 44.7549C223.604 44.8202 223.434 44.8685 223.261 44.899C223.081 44.9345 222.907 44.9621 222.745 44.9858C222.588 45.0094 222.43 45.0232 222.271 45.0273C222.121 45.047 222.002 45.047 221.926 45.047C221.451 45.071 220.979 44.9632 220.56 44.7351C220.203 44.5338 220.035 44.1785 220.035 43.6573C220.023 43.3624 220.091 43.0696 220.23 42.8105C220.369 42.6191 220.547 42.4614 220.753 42.3486C220.958 42.2439 221.179 42.177 221.407 42.1511C221.625 42.1276 221.844 42.1157 222.063 42.1156Z" fill="#43B02A"/>
<path fill-rule="evenodd" clip-rule="evenodd" d="M243.409 37.9564C242.742 37.2496 241.73 36.8963 240.375 36.8963L240.361 36.8924C239.774 36.8856 239.192 36.9998 238.65 37.2279C238.132 37.435 237.67 37.7638 237.302 38.1873C236.913 38.6476 236.618 39.1809 236.433 39.7567C236.199 40.4331 236.086 41.1464 236.1 41.863C236.1 43.5527 236.494 44.7964 237.241 45.5662C237.989 46.3361 239.093 46.7309 240.525 46.7309C241.038 46.7266 241.549 46.675 242.053 46.5769C242.574 46.4726 243.074 46.2776 243.53 46.0005L243.571 45.9788C243.702 45.893 243.739 45.7165 243.655 45.584L243.185 44.5674C243.101 44.4055 242.974 44.3759 242.779 44.4549C242.474 44.6029 242.156 44.7193 241.829 44.8023C241.463 44.8963 241.087 44.9434 240.71 44.9424C240.381 44.9434 240.053 44.9003 239.735 44.8141C239.449 44.7294 239.183 44.5855 238.954 44.3917C238.724 44.1783 238.544 43.9152 238.428 43.6218C238.286 43.2439 238.22 42.8414 238.232 42.4374H242.956C243.15 42.4393 243.343 42.4141 243.53 42.3624C243.698 42.327 243.852 42.2418 243.973 42.1176C244.115 41.9857 244.223 41.8202 244.287 41.6359C244.356 41.3855 244.389 41.1261 244.385 40.8661C244.385 39.6284 244.053 38.6611 243.409 37.9564ZM238.91 39.3323C239.27 38.8786 239.817 38.6197 240.392 38.6315L240.402 38.6334C240.742 38.6228 241.08 38.6839 241.395 38.8131C241.63 38.924 241.832 39.0956 241.981 39.3105C242.133 39.5268 242.24 39.7729 242.293 40.033C242.361 40.3274 242.395 40.6289 242.394 40.9312H238.297C238.305 40.6378 238.363 40.348 238.469 40.0745C238.577 39.8054 238.725 39.555 238.91 39.3323Z" fill="#43B02A"/>
<path fill-rule="evenodd" clip-rule="evenodd" d="M261.399 46.1051C261.624 45.9994 261.758 45.7622 261.735 45.5129L261.752 40.1376C261.752 39.0815 261.489 38.2821 260.904 37.7274C260.318 37.1727 259.401 36.9022 258.172 36.9022C257.614 36.906 257.057 36.9435 256.504 37.0147C255.946 37.088 255.398 37.2258 254.871 37.4253C254.705 37.4747 254.658 37.5971 254.705 37.7945L254.956 38.819C254.967 38.902 255.015 38.9752 255.087 39.0164C255.182 39.0338 255.279 39.0263 255.37 38.9947C255.743 38.8784 256.126 38.7958 256.513 38.7479C256.954 38.6777 257.399 38.6408 257.844 38.6374C258.155 38.6273 258.465 38.6679 258.763 38.7578C258.972 38.8165 259.163 38.9271 259.319 39.0796C259.448 39.2213 259.54 39.3938 259.585 39.581C259.634 39.789 259.657 40.0026 259.653 40.2166V40.5206H257.663C257.051 40.5041 256.441 40.5949 255.86 40.7891C255.42 40.9394 255.015 41.1792 254.67 41.4938C254.363 41.7738 254.13 42.1275 253.994 42.5223C253.859 42.9113 253.793 43.3218 253.799 43.7343C253.797 44.1262 253.856 44.5161 253.975 44.8891C254.102 45.2562 254.319 45.5849 254.605 45.8445C254.963 46.1419 255.379 46.361 255.825 46.4881C256.46 46.663 257.117 46.7435 257.776 46.7269C258.067 46.7269 258.375 46.725 258.675 46.7052C258.976 46.6855 259.306 46.6519 259.63 46.6006C259.943 46.5576 260.254 46.4917 260.558 46.4032C260.846 46.326 261.127 46.2263 261.399 46.1051ZM257.926 42.1156H259.641L259.637 44.7549C259.472 44.8173 259.302 44.8655 259.128 44.899C258.954 44.9345 258.769 44.9622 258.603 44.9859C258.448 45.0099 258.29 45.0237 258.133 45.0273C258.018 45.04 257.903 45.0466 257.788 45.0471C257.313 45.0675 256.842 44.9599 256.422 44.7352C256.074 44.5338 255.907 44.1785 255.907 43.6573C255.897 43.3614 255.968 43.0684 256.111 42.8105C256.243 42.6184 256.418 42.4602 256.621 42.3486C256.829 42.2417 257.056 42.1748 257.288 42.1511C257.5 42.128 257.713 42.1161 257.926 42.1156Z" fill="#43B02A"/>
<path d="M205.018 34.0478C204.977 33.9787 204.87 33.951 204.706 33.951H199.709C199.196 33.936 198.686 34.0274 198.21 34.2195C197.834 34.3753 197.499 34.6196 197.235 34.9321C196.983 35.2329 196.802 35.5871 196.704 35.9685C196.607 36.3678 196.557 36.7773 196.556 37.1885V46.1545C196.556 46.3084 196.589 46.4131 196.667 46.4604C196.76 46.515 196.866 46.5404 196.973 46.5335H197.527C197.918 46.5058 198.722 46.3084 198.722 45.1398V40.9944H204.048C204.208 40.9944 204.302 40.9608 204.349 40.8897C204.398 40.7965 204.42 40.6912 204.413 40.5857V39.5632C204.428 39.4517 204.405 39.3383 204.349 39.2414C204.304 39.1802 204.208 39.1487 204.048 39.1487H198.72V37.0542C198.696 36.7385 198.797 36.4262 199.001 36.1856C199.176 35.9882 199.5 35.8856 199.949 35.8856H204.706C204.868 35.8856 204.962 35.852 205.004 35.7889C205.07 35.6971 205.1 35.5838 205.088 35.471V34.3616C205.091 34.2533 205.067 34.146 205.018 34.0498" fill="#43B02A"/>
<path fill-rule="evenodd" clip-rule="evenodd" d="M234.411 38.2525C234.749 38.714 234.995 39.2377 235.135 39.7942L235.133 39.7961C235.297 40.4234 235.378 41.07 235.373 41.7188C235.382 42.3916 235.297 43.0622 235.12 43.7106C234.962 44.2913 234.687 44.833 234.314 45.3017C233.935 45.7599 233.455 46.1211 232.913 46.3558C232.267 46.6123 231.578 46.7371 230.885 46.723C230.261 46.7261 229.638 46.6772 229.022 46.5769C228.415 46.5004 227.823 46.3313 227.266 46.0755C227.179 46.048 227.105 45.9908 227.055 45.9136C227.017 45.8332 226.999 45.7443 227.002 45.655V34.7643C227.026 33.6471 227.783 33.4398 228.173 33.4121H228.739C228.829 33.3998 228.92 33.4194 228.997 33.4674C229.061 33.5401 229.091 33.637 229.081 33.7339V37.222C229.451 37.1067 229.831 37.0254 230.216 36.9792C230.578 36.9279 230.943 36.9015 231.309 36.9002C231.943 36.8804 232.573 37.0052 233.153 37.2654C233.645 37.4869 234.077 37.8255 234.411 38.2525ZM232.573 44.2377C232.799 43.9466 232.969 43.6151 233.075 43.2606H233.067C233.193 42.7906 233.249 42.3043 233.235 41.8175C233.235 40.7595 233.04 39.9738 232.64 39.4645C232.238 38.9467 231.613 38.6576 230.963 38.6887C230.693 38.6942 230.422 38.7139 230.154 38.7479C229.788 38.7778 229.427 38.8548 229.081 38.9769V44.7213C229.366 44.8168 229.661 44.8791 229.961 44.9069C230.231 44.9371 230.504 44.9536 230.776 44.9562C231.123 44.9619 231.468 44.9023 231.793 44.7806C232.094 44.6688 232.362 44.4821 232.573 44.2377Z" fill="#43B02A"/>
<path d="M248.943 46.1012L248.814 45.1003C248.822 45.0255 248.793 44.9516 248.736 44.9029C248.675 44.8737 248.606 44.866 248.541 44.8812C248.463 44.8812 248.346 44.899 248.234 44.9168C248.123 44.9345 247.988 44.9168 247.905 44.9168C247.729 44.9419 247.552 44.8785 247.43 44.747C247.329 44.5539 247.287 44.3347 247.309 44.1173V33.7142C247.32 33.6223 247.288 33.5307 247.224 33.4654C247.134 33.4209 247.034 33.4024 246.935 33.4121H246.377C245.987 33.4398 245.247 33.647 245.206 34.715V44.6266C245.206 45.3984 245.362 45.9413 245.67 46.2551C245.979 46.569 246.465 46.7171 247.13 46.7171C247.358 46.7171 247.629 46.7171 247.934 46.6796C248.21 46.6518 248.481 46.5853 248.74 46.4822C248.824 46.4534 248.898 46.4006 248.952 46.3302C248.977 46.2525 248.977 46.169 248.952 46.0913" fill="#43B02A"/>
<path d="M253.502 46.1012L253.377 45.1004C253.378 45.0256 253.348 44.9539 253.293 44.9029C253.232 44.8751 253.164 44.8675 253.098 44.8812C253.014 44.8812 252.903 44.899 252.788 44.9168C252.673 44.9345 252.548 44.9168 252.462 44.9168C252.283 44.9418 252.103 44.8787 251.978 44.747C251.883 44.5518 251.843 44.3341 251.861 44.1173V33.7142C251.861 33.5819 251.834 33.503 251.779 33.4654C251.693 33.4202 251.596 33.4016 251.5 33.4121H250.915C250.525 33.4398 249.76 33.655 249.744 34.794V44.6266C249.744 45.3984 249.892 45.9413 250.199 46.2552C250.505 46.569 250.997 46.7171 251.658 46.7171C251.902 46.7171 252.166 46.7171 252.468 46.6796C252.748 46.6508 253.023 46.5845 253.286 46.4822C253.366 46.4491 253.438 46.397 253.494 46.3302C253.51 46.2514 253.51 46.1701 253.494 46.0913" fill="#43B02A"/>
<path d="M217.658 46.1012L217.536 45.1003C217.518 44.9957 217.5 44.9365 217.457 44.9029C217.393 44.873 217.32 44.8654 217.251 44.8812C217.171 44.8812 217.056 44.899 216.935 44.9168C216.814 44.9345 216.704 44.9168 216.609 44.9168C216.432 44.9422 216.253 44.8788 216.131 44.747C216.037 44.6424 216 44.4252 216 44.1173V33.7142C216 33.5819 215.984 33.5029 215.928 33.4654C215.844 33.4213 215.75 33.4027 215.656 33.4121H215.071C214.681 33.4398 213.9 33.6549 213.9 34.794V44.6266C213.9 45.3984 214.058 45.9413 214.359 46.2551C214.659 46.569 215.151 46.7171 215.818 46.7171C216.051 46.7171 216.324 46.7171 216.624 46.6796C216.903 46.6513 217.177 46.5849 217.438 46.4822C217.526 46.4731 217.605 46.4205 217.647 46.3415C217.69 46.2626 217.691 46.1675 217.651 46.0874" fill="#43B02A"/>
<path d="M263.294 26.0589L260.605 23.3426L256.49 19.1972L257.026 19.0787C260.693 18.3069 263.151 15.9696 263.159 11.4827C263.159 6.24363 258.816 3.34181 254.48 3.33392H245.428C245.342 3.33785 245.258 3.35934 245.181 3.39708C245.116 3.43854 245.081 3.54119 245.081 3.70898V26.5149C245.116 26.6708 245.159 26.7695 245.229 26.7992C245.329 26.8366 245.438 26.8441 245.542 26.8209H245.592L249.354 26.2681C249.417 26.2644 249.478 26.2455 249.532 26.2129C249.604 26.1734 249.629 26.0668 249.629 25.9049V7.81298H254.652C256.825 7.81298 258.706 9.36851 258.712 11.4393C258.718 13.51 257.202 14.5503 255.05 15.0813C252.861 15.6479 251.871 17.1876 251.86 18.8636C251.875 20.0097 252.308 21.1099 253.075 21.9529C253.452 22.4428 253.864 22.9046 254.306 23.3347L254.343 23.3643L260.365 29.5529C260.742 29.7936 261.179 29.9203 261.625 29.9181C262.887 29.9215 263.916 28.8983 263.936 27.6223C263.949 27.0272 263.714 26.454 263.288 26.0431" fill="#43B02A"/>
<path d="M214.425 20.123C214.045 19.8754 213.602 19.7432 213.149 19.742C212.53 19.7442 211.939 20.0032 211.514 20.4586C211.381 20.6185 211.087 20.8909 210.972 21.0074C208.174 23.6287 203.995 24.0483 200.743 22.0343C197.49 20.0204 195.958 16.0642 196.993 12.3512C198.028 8.63826 201.377 6.07435 205.19 6.07584C206.751 6.07584 208.898 6.35813 210.757 8.16239C210.774 8.18149 210.796 8.19634 210.82 8.20581C210.918 8.25668 211.031 8.26865 211.138 8.23937L215.159 7.64717C215.563 7.58794 215.366 7.2721 215.366 7.2721C214.652 5.95345 211.674 1.32831 204.782 1.39542C197.512 1.46649 192.07 7.24052 192.002 14.7438C192.015 20.1988 195.308 25.0968 200.318 27.1125C205.328 29.1282 211.047 27.8558 214.759 23.8993C214.9 23.7234 215.024 23.5351 215.132 23.3367C215.358 22.9481 215.48 22.5065 215.485 22.0556C215.47 21.273 215.074 20.5481 214.427 20.1191" fill="#43B02A"/>
<path d="M239.315 2.42981C237.438 2.42981 236.367 3.77017 235.531 5.5389L230.39 16.5954C230.39 16.5954 230.345 16.7296 230.263 16.7296C230.181 16.7296 230.123 16.5954 230.123 16.5954L225.73 9.03687L224.376 6.68581C224.298 6.55157 224.214 6.47656 224.134 6.47064C224.092 6.4629 224.049 6.4629 224.008 6.47064L218.011 7.3175C217.954 7.32678 217.899 7.34759 217.85 7.37869C217.787 7.41422 217.758 7.52279 217.758 7.68861V27.6184C217.758 28.8907 218.777 29.9221 220.035 29.9221C221.292 29.9221 222.312 28.8907 222.312 27.6184V12.296L228.849 23.3505L230.246 25.6937C230.246 25.6937 230.296 25.7786 230.37 25.7786C230.445 25.7786 230.474 25.6937 230.474 25.6937L231.611 23.3407L238.199 9.83043V27.5434H238.212C238.238 27.6954 238.281 27.7881 238.357 27.8256C238.443 27.8552 238.534 27.8647 238.624 27.8533H238.657L242.452 27.3045C242.525 27.2986 242.595 27.2778 242.659 27.2433C242.733 27.2018 242.749 27.1051 242.759 26.961H242.772V5.91002C242.743 3.99355 241.209 2.44991 239.315 2.42981" fill="#43B02A"/>
<path d="M171.6 1.49497C171.6 1.33206 171.732 1.2 171.895 1.2H171.905C172.068 1.2 172.2 1.33206 172.2 1.49497V46.505C172.2 46.6679 172.068 46.8 171.905 46.8H171.895C171.732 46.8 171.6 46.6679 171.6 46.505V1.49497Z" fill="#CFDBE6"/>
<path fill-rule="evenodd" clip-rule="evenodd" d="M122.852 31.9398C124.954 31.9398 126.524 32.492 127.551 33.5635C128.557 34.6487 129.057 36.1237 129.057 38.014C129.057 38.4863 129.005 38.887 128.903 39.2007C128.791 39.4972 128.63 39.7446 128.426 39.9441C128.239 40.1191 128 40.2514 127.725 40.3122C127.458 40.3883 127.174 40.4191 126.861 40.4191H119.558C119.565 41.1607 119.675 41.7437 119.875 42.2323C120.084 42.7164 120.36 43.099 120.702 43.4073C121.053 43.7101 121.45 43.9285 121.907 44.0546C122.366 44.1824 122.879 44.2431 123.407 44.2431C123.982 44.2431 124.575 44.1751 125.136 44.0292C125.697 43.8887 126.198 43.7101 126.619 43.5106C126.898 43.3882 127.112 43.4299 127.225 43.6674L127.973 45.2268C128.093 45.5314 128.029 45.7408 127.772 45.8677C127.081 46.2866 126.317 46.5794 125.495 46.7408C124.669 46.904 123.875 47.0001 123.122 47.0001C120.903 47.0001 119.201 46.4035 118.047 45.2014C116.865 44.0192 116.28 42.1317 116.28 39.5497C116.28 38.3349 116.441 37.2633 116.768 36.3259C117.104 35.3731 117.556 34.5789 118.126 33.9398C118.72 33.2825 119.407 32.792 120.206 32.4648C121.013 32.1139 121.897 31.9398 122.852 31.9398ZM122.907 34.6014C122.417 34.6014 121.973 34.6993 121.59 34.8897C121.193 35.0892 120.87 35.3502 120.593 35.6757C120.329 36.0121 120.103 36.3901 119.939 36.8053C119.771 37.2205 119.675 37.653 119.664 38.119H125.984C125.984 37.6231 125.95 37.1689 125.843 36.7464C125.753 36.3294 125.603 35.9658 125.36 35.6431C125.136 35.3221 124.818 35.0656 124.441 34.8752C124.044 34.6993 123.537 34.6014 122.907 34.6014Z" fill="#9FA1A1"/>
<path fill-rule="evenodd" clip-rule="evenodd" d="M155.94 45.1375C155.94 45.5736 155.763 45.8673 155.412 46.0314C155.015 46.2082 154.585 46.3804 154.108 46.5028C153.637 46.6261 153.16 46.7304 152.666 46.8011C152.174 46.8709 151.674 46.9271 151.193 46.9507C150.71 46.9842 150.249 46.9996 149.805 46.9996C148.594 46.9996 147.595 46.8709 146.791 46.6261C146.006 46.3804 145.37 46.0595 144.888 45.6343C144.434 45.2273 144.113 44.7368 143.927 44.1756C143.734 43.6271 143.637 43.0288 143.637 42.4187C143.637 41.755 143.748 41.1612 143.973 40.5593C144.168 39.9636 144.519 39.436 144.995 38.9809C145.462 38.543 146.084 38.184 146.851 37.9075C147.609 37.6237 148.548 37.4868 149.641 37.4868H152.726V37.0299C152.726 36.6727 152.688 36.3627 152.618 36.059C152.542 35.7734 152.388 35.5232 152.181 35.2956C151.963 35.0826 151.687 34.9022 151.317 34.7897C150.95 34.6683 150.476 34.6012 149.889 34.6012C149.266 34.6012 148.579 34.6619 147.836 34.7725C147.121 34.875 146.524 35.0019 146.06 35.1596C145.86 35.2095 145.71 35.2294 145.623 35.1932C145.523 35.1596 145.462 35.0427 145.43 34.875L145.049 33.3193C144.972 33.0255 145.052 32.8324 145.299 32.7454C146.06 32.4643 146.907 32.2377 147.819 32.1244C148.748 32.0011 149.608 31.9394 150.403 31.9394C152.318 31.9394 153.72 32.361 154.608 33.2032C155.482 34.0463 155.94 35.272 155.94 36.8903V45.1375ZM152.688 39.9338H150.056C149.738 39.9338 149.401 39.9555 149.05 39.9945C148.693 40.0317 148.356 40.1323 148.023 40.2946C147.702 40.465 147.445 40.6853 147.228 40.9936C147.028 41.3209 146.907 41.7551 146.907 42.3018C146.907 43.0796 147.187 43.6354 147.712 43.9418C148.234 44.2528 148.953 44.4259 149.837 44.4259C149.959 44.4259 150.136 44.4105 150.369 44.3924C150.599 44.3833 150.842 44.3688 151.089 44.3262C151.36 44.2827 151.621 44.2428 151.908 44.192C152.192 44.1358 152.449 44.0696 152.688 43.9663V39.9338Z" fill="#9FA1A1"/>
<path fill-rule="evenodd" clip-rule="evenodd" d="M100.446 45.1375C100.446 45.5736 100.267 45.8673 99.9132 46.0314C99.5121 46.2082 99.0711 46.3804 98.6238 46.5028C98.1474 46.6261 97.6746 46.7304 97.1791 46.8011C96.6692 46.8709 96.1837 46.9271 95.6937 46.9507C95.2027 46.9842 94.749 46.9996 94.3089 46.9996C93.1002 46.9996 92.1057 46.8709 91.3053 46.6261C90.4968 46.3804 89.8661 46.0595 89.3988 45.6343C88.936 45.2273 88.6184 44.7368 88.4279 44.1756C88.2346 43.6271 88.1475 43.0288 88.1475 42.4187C88.1475 41.755 88.2582 41.1612 88.4778 40.5593C88.6838 39.9636 89.0249 39.436 89.5023 38.9809C89.9832 38.543 90.5866 38.184 91.3425 37.9075C92.1129 37.6237 93.0394 37.4868 94.132 37.4868H97.2163V37.0299C97.2163 36.6727 97.1891 36.3627 97.1056 36.059C97.043 35.7734 96.8987 35.5232 96.6882 35.2956C96.4741 35.0826 96.1837 34.9022 95.8144 34.7897C95.4595 34.6683 94.9732 34.6012 94.3888 34.6012C93.7717 34.6012 93.0866 34.6619 92.3561 34.7725C91.622 34.875 91.0349 35.0019 90.5712 35.1596C90.3761 35.2095 90.2209 35.2294 90.1375 35.1932C90.0395 35.1596 89.9832 35.0427 89.9269 34.875L89.5522 33.3193C89.4723 33.0255 89.5667 32.8324 89.7963 32.7454C90.5712 32.4643 91.4178 32.2377 92.3289 32.1244C93.2536 32.0011 94.1147 31.9394 94.9223 31.9394C96.8189 31.9394 98.2163 32.361 99.1083 33.2032C100.002 34.0463 100.446 35.272 100.446 36.8903V45.1375ZM97.2028 39.9338H94.5586C94.2355 39.9338 93.9079 39.9555 93.5668 39.9945C93.1974 40.0317 92.8562 40.1323 92.5432 40.2946C92.2165 40.465 91.9497 40.6853 91.7446 40.9936C91.5214 41.3209 91.4307 41.7551 91.4307 42.3018C91.4307 43.0796 91.6884 43.6354 92.2165 43.9418C92.7437 44.2528 93.4542 44.4259 94.3426 44.4259C94.4696 44.4259 94.6357 44.4105 94.8762 44.3924C95.0903 44.3833 95.3381 44.3688 95.6094 44.3262C95.8517 44.2827 96.1239 44.2428 96.4116 44.192C96.6983 44.1358 96.966 44.0696 97.2028 43.9663V39.9338Z" fill="#9FA1A1"/>
<path fill-rule="evenodd" clip-rule="evenodd" d="M79.9231 45.1375C79.9231 45.5736 79.7534 45.8673 79.3949 46.0314C78.992 46.2082 78.5628 46.3804 78.1009 46.5028C77.6236 46.6261 77.1527 46.7304 76.6518 46.8011C76.1563 46.8709 75.6708 46.9271 75.1899 46.9507C74.7026 46.9842 74.2353 46.9996 73.7916 46.9996C72.5865 46.9996 71.5756 46.8709 70.7816 46.6261C69.9794 46.3804 69.3569 46.0595 68.8814 45.6343C68.4223 45.2273 68.0947 44.7368 67.9177 44.1756C67.7308 43.6271 67.6328 43.0288 67.6328 42.4187C67.6328 41.755 67.7508 41.1612 67.9604 40.5593C68.1646 39.9636 68.5076 39.436 68.9785 38.9809C69.4731 38.543 70.0729 38.184 70.8442 37.9075C71.6092 37.6237 72.5339 37.4868 73.6191 37.4868H76.708V37.0299C76.708 36.6727 76.6699 36.3627 76.6046 36.059C76.5256 35.7734 76.3814 35.5232 76.1754 35.2956C75.9549 35.0826 75.6708 34.9022 75.3206 34.7897C74.9404 34.6683 74.4658 34.6012 73.8805 34.6012C73.2498 34.6012 72.5865 34.6619 71.8515 34.7725C71.101 34.875 70.5212 35.0019 70.0529 35.1596C69.8433 35.2095 69.7072 35.2294 69.6137 35.1932C69.5303 35.1596 69.4731 35.0427 69.4268 34.875L69.052 33.3193C68.9749 33.0255 69.052 32.8324 69.2916 32.7454C70.0529 32.4643 70.9041 32.2377 71.8152 32.1244C72.7271 32.0011 73.5955 31.9394 74.3959 31.9394C76.3051 31.9394 77.6971 32.361 78.591 33.2032C79.4793 34.0463 79.9231 35.272 79.9231 36.8903V45.1375ZM76.6755 39.9338H74.0394C73.7264 39.9338 73.3988 39.9555 73.0404 39.9945C72.6738 40.0317 72.3525 40.1323 72.0159 40.2946C71.7128 40.465 71.4279 40.6853 71.2255 40.9936C71.0213 41.3209 70.9143 41.7551 70.9143 42.3018C70.9143 43.0796 71.1847 43.6354 71.7128 43.9418C72.24 44.2528 72.9478 44.4259 73.8289 44.4259C73.9514 44.4259 74.1284 44.4105 74.3625 44.3924C74.5903 44.3833 74.8335 44.3688 75.0812 44.3262C75.3434 44.2827 75.6048 44.2428 75.8988 44.192C76.1792 44.1358 76.455 44.0696 76.6755 43.9663V39.9338Z" fill="#9FA1A1"/>
<path fill-rule="evenodd" clip-rule="evenodd" d="M68.1938 27.5957C68.133 27.4788 67.977 27.4552 67.7165 27.4552H59.9825C59.0678 27.4552 58.2738 27.5658 57.6504 27.8541C57.0388 28.1206 56.5261 28.4941 56.1413 28.9447C55.7539 29.418 55.4871 29.9302 55.3374 30.5312C55.1795 31.1241 55.0996 31.7406 55.0996 32.3879V46.12C55.0996 46.3521 55.1559 46.5071 55.2629 46.5787C55.38 46.6603 55.5297 46.6939 55.7348 46.6939H56.6141C57.1985 46.6549 58.4444 46.3521 58.4444 44.5661V38.2318H66.6984C66.9488 38.2318 67.0895 38.1837 67.1557 38.065C67.222 37.9544 67.2537 37.8039 67.2537 37.5999V36.0378C67.2537 35.7731 67.222 35.6099 67.1557 35.532C67.0895 35.4522 66.9488 35.3996 66.6984 35.3996H58.4444V32.1975C58.4444 31.6137 58.5914 31.1613 58.8854 30.8558C59.1558 30.5603 59.6513 30.4007 60.3527 30.4007H67.7165C67.9597 30.4007 68.114 30.3635 68.1839 30.2638C68.2673 30.1867 68.3045 30.0136 68.3045 29.7697V28.068C68.3045 27.8541 68.2673 27.6891 68.1938 27.5957Z" fill="#9FA1A1"/>
<path fill-rule="evenodd" clip-rule="evenodd" d="M143.187 46.0309L142.993 44.4897C142.976 44.3383 142.939 44.2522 142.876 44.215C142.819 44.157 142.702 44.1516 142.555 44.1688C142.426 44.1815 142.258 44.1996 142.072 44.2187C141.888 44.2422 141.711 44.2422 141.571 44.2422C141.201 44.2422 140.964 44.157 140.828 43.9884C140.693 43.8216 140.64 43.4861 140.64 43.0093V27.0851C140.64 26.8757 140.6 26.7551 140.506 26.6989C140.436 26.6381 140.299 26.6236 140.085 26.6236H139.211C138.594 26.6572 137.398 26.979 137.385 28.7106V43.7808C137.385 44.9666 137.623 45.797 138.109 46.273C138.571 46.7535 139.332 46.9992 140.36 46.9992C140.73 46.9992 141.131 46.9602 141.618 46.9276C142.072 46.8704 142.495 46.7834 142.866 46.6374C143.043 46.5404 143.15 46.4634 143.187 46.4035C143.226 46.3392 143.226 46.2077 143.187 46.0309Z" fill="#9FA1A1"/>
<path fill-rule="evenodd" clip-rule="evenodd" d="M136.142 46.0309L135.951 44.4897C135.928 44.3383 135.898 44.2522 135.828 44.215C135.774 44.157 135.664 44.1516 135.507 44.1688C135.384 44.1815 135.216 44.1996 135.039 44.2187C134.839 44.2422 134.665 44.2422 134.519 44.2422C134.162 44.2422 133.899 44.157 133.778 43.9884C133.647 43.8216 133.601 43.4861 133.601 43.0093V27.0851C133.601 26.8757 133.548 26.7551 133.461 26.6989C133.38 26.6381 133.234 26.6236 133.04 26.6236H132.146C131.553 26.6572 130.404 26.97 130.324 28.6073V43.7808C130.324 44.9666 130.581 45.797 131.055 46.273C131.539 46.7535 132.276 46.9992 133.321 46.9992C133.688 46.9992 134.096 46.9602 134.566 46.9276C135.039 46.8704 135.447 46.7834 135.811 46.6374C135.998 46.5404 136.108 46.4634 136.142 46.4035C136.179 46.3392 136.179 46.2077 136.142 46.0309Z" fill="#9FA1A1"/>
<path fill-rule="evenodd" clip-rule="evenodd" d="M87.7499 46.0309L87.553 44.4897C87.5394 44.3383 87.4931 44.2522 87.4359 44.215C87.376 44.157 87.2626 44.1516 87.1083 44.1688C86.9822 44.1815 86.8089 44.1996 86.6283 44.2187C86.4305 44.2422 86.2771 44.2422 86.1174 44.2422C85.7671 44.2422 85.5013 44.157 85.3897 43.9884C85.2499 43.8216 85.18 43.4861 85.18 43.0093V27.0851C85.18 26.8757 85.1501 26.7551 85.0666 26.6989C84.9731 26.6381 84.8525 26.6236 84.6419 26.6236H83.7536C83.1465 26.6572 81.955 26.979 81.9414 28.7432V43.7808C81.9414 44.9666 82.1792 45.797 82.6565 46.273C83.1274 46.7535 83.8842 46.9992 84.9223 46.9992C85.2726 46.9992 85.6973 46.9602 86.17 46.9276C86.6283 46.8704 87.053 46.7834 87.4169 46.6374C87.5956 46.5404 87.7072 46.4634 87.7499 46.4035C87.7771 46.3392 87.7771 46.2077 87.7499 46.0309Z" fill="#9FA1A1"/>
<path fill-rule="evenodd" clip-rule="evenodd" d="M114.796 36.3907C114.539 35.4633 114.175 34.6854 113.664 34.0227C113.164 33.3754 112.516 32.8496 111.711 32.4924C110.917 32.1243 109.963 31.9403 108.871 31.9403C108.375 31.9403 107.809 31.9874 107.17 32.0699C106.548 32.1515 105.968 32.2785 105.416 32.4353L105.404 27.1191C105.404 26.8852 105.38 26.7546 105.297 26.6993C105.229 26.6386 105.081 26.6232 104.885 26.6232H104.028C103.414 26.6567 102.253 26.9695 102.216 28.6748V45.3496C102.216 45.5037 102.245 45.6343 102.299 45.7512C102.346 45.8401 102.473 45.928 102.619 45.9897C103.46 46.3804 104.348 46.6261 105.334 46.7639C106.325 46.9162 107.273 46.9996 108.217 46.9996C109.412 46.9996 110.463 46.8011 111.357 46.4221C112.226 46.0314 112.945 45.5019 113.523 44.8147C114.081 44.1257 114.512 43.3134 114.763 42.3797C115.025 41.4413 115.159 40.4287 115.159 39.3408C115.159 38.271 115.033 37.2828 114.796 36.3907ZM111.591 41.6841C111.404 42.3015 111.14 42.7956 110.823 43.1727C110.482 43.5635 110.086 43.8355 109.612 44.0086C109.151 44.1917 108.614 44.2697 108.057 44.2697C107.683 44.2697 107.253 44.2525 106.777 44.2162C106.315 44.1582 105.861 44.0694 105.404 43.9198V35.1322C105.987 34.95 106.551 34.8222 107.09 34.7732C107.632 34.7089 108.039 34.6853 108.337 34.6853C109.432 34.6853 110.295 35.0824 110.93 35.8666C111.548 36.6526 111.855 37.8674 111.855 39.4675C111.855 40.3451 111.772 41.0876 111.591 41.6841Z" fill="#9FA1A1"/>
<path fill-rule="evenodd" clip-rule="evenodd" d="M82.3863 21.6381C82.3863 22.0769 82.213 22.3751 81.8618 22.5383C81.4753 22.7133 81.0388 22.871 80.5715 22.9998C80.1105 23.1276 79.6332 23.2309 79.1386 23.3026C78.6513 23.3715 78.1704 23.4213 77.6804 23.4549C77.2031 23.4757 76.7394 23.4821 76.3056 23.4821C75.1042 23.4821 74.1087 23.3715 73.3247 23.1276C72.5334 22.881 71.9027 22.5501 71.4418 22.1394C70.979 21.7405 70.665 21.26 70.4708 20.688C70.2911 20.1495 70.2031 19.5602 70.2031 18.9473C70.2031 18.3055 70.3066 17.7008 70.5207 17.1097C70.7213 16.5122 71.0579 15.9882 71.5389 15.5513C72.0026 15.1116 72.6133 14.7571 73.3719 14.4815C74.1287 14.1995 75.057 14.0654 76.1414 14.0654H79.1931V13.5985C79.1931 13.2676 79.1559 12.9448 79.086 12.6565C79.0152 12.3592 78.8755 12.1144 78.6649 11.8923C78.4508 11.6729 78.1749 11.5033 77.8101 11.3801C77.4372 11.2604 76.9735 11.2141 76.3891 11.2141C75.782 11.2141 75.1005 11.2604 74.3755 11.3728C73.6477 11.4834 73.0479 11.6103 72.6006 11.7508C72.3991 11.8107 72.263 11.8107 72.1605 11.7853C72.0761 11.7463 72.0026 11.6475 71.9735 11.4834L71.5915 9.92136C71.5153 9.64122 71.596 9.45084 71.8519 9.36562C72.6006 9.06916 73.4318 8.85974 74.3428 8.74279C75.2602 8.62222 76.1151 8.56601 76.9091 8.56601C78.7956 8.56601 80.184 8.98395 81.0624 9.8171C81.9553 10.6493 82.3863 11.8705 82.3863 13.4734V21.6381ZM79.1697 16.4923H76.5581C76.245 16.4923 75.9093 16.5086 75.5581 16.5458C75.2078 16.5829 74.863 16.6799 74.55 16.8467C74.236 17.0163 73.9746 17.2493 73.755 17.5521C73.5445 17.8558 73.442 18.2937 73.442 18.8331C73.442 19.6145 73.7088 20.1531 74.236 20.4604C74.7695 20.7741 75.4646 20.9309 76.3349 20.9309C76.4655 20.9309 76.6389 20.9309 76.8657 20.9146C77.0899 20.911 77.3394 20.8874 77.5871 20.8403C77.8439 20.8185 78.1153 20.7704 78.3911 20.7115C78.6751 20.6635 78.9356 20.5837 79.1697 20.4994V16.4923Z" fill="#545759"/>
<path fill-rule="evenodd" clip-rule="evenodd" d="M89.6132 11.2872C89.409 11.2872 89.1186 11.2935 88.7593 11.3026C88.3809 11.3107 87.9462 11.3633 87.4598 11.4485V22.731C87.4598 22.9277 87.4326 23.051 87.3564 23.1109C87.2729 23.1689 87.1359 23.1852 86.9426 23.1852H84.8165C84.6296 23.1852 84.5025 23.1689 84.4227 23.1109C84.3328 23.051 84.292 22.9277 84.292 22.731V11.0696C84.292 10.4196 84.4027 9.9155 84.6522 9.54652C84.8764 9.18298 85.3709 8.94002 86.1187 8.81219C86.3056 8.78952 86.5388 8.76595 86.8482 8.73513C87.1568 8.69252 87.4934 8.67257 87.8346 8.64628C88.1803 8.6354 88.5116 8.61274 88.8346 8.58554C89.1613 8.57194 89.4426 8.5656 89.6758 8.5656C90.8809 8.5656 91.9126 8.69252 92.7874 8.94092C93.6703 9.20202 94.399 9.59367 94.9634 10.1585C95.5405 10.716 95.9643 11.4259 96.2311 12.3234C96.5051 13.21 96.6385 14.2807 96.6385 15.5336V22.731C96.6385 22.9277 96.6049 23.051 96.5387 23.1109C96.4688 23.1689 96.3245 23.1852 96.1276 23.1852H93.9879C93.8046 23.1852 93.6785 23.1689 93.6041 23.1109C93.5151 23.051 93.4743 22.9277 93.4743 22.731V15.481C93.4743 14.7748 93.4217 14.1583 93.301 13.637C93.1885 13.104 92.9779 12.6797 92.6839 12.3234C92.3999 11.9744 92.0024 11.7187 91.4979 11.5519C91.0115 11.3733 90.3763 11.2872 89.6132 11.2872Z" fill="#545759"/>
<path fill-rule="evenodd" clip-rule="evenodd" d="M123.063 15.9851C123.063 18.3866 122.492 20.2397 121.381 21.5406C120.263 22.8343 118.594 23.4816 116.375 23.4816C114.176 23.4816 112.543 22.8579 111.455 21.5969C110.38 20.3303 109.843 18.4864 109.843 16.0649C109.843 14.8546 110.002 13.7948 110.334 12.8701C110.651 11.9381 111.1 11.1702 111.686 10.5265C112.268 9.89192 112.973 9.40055 113.778 9.06964C114.59 8.73511 115.478 8.56558 116.464 8.56558C118.624 8.56558 120.263 9.22014 121.381 10.5401C122.492 11.8574 123.063 13.6678 123.063 15.9851ZM119.816 16.065C119.816 15.396 119.769 14.7749 119.666 14.1993C119.563 13.6136 119.39 13.0941 119.142 12.6563C118.896 12.1939 118.558 11.8476 118.127 11.591C117.703 11.3272 117.175 11.2139 116.515 11.2139C115.927 11.2139 115.423 11.3272 114.993 11.5838C114.549 11.8222 114.179 12.1667 113.905 12.5756C113.608 12.9908 113.394 13.5012 113.251 14.0805C113.123 14.6634 113.058 15.3026 113.058 15.968C113.058 17.4911 113.301 18.6796 113.788 19.5545C114.283 20.4203 115.161 20.8409 116.418 20.8409C117.044 20.8409 117.577 20.714 118.016 20.4565C118.455 20.1891 118.801 19.8391 119.068 19.3976C119.325 18.9643 119.515 18.4421 119.637 17.8755C119.763 17.3016 119.816 16.6897 119.816 16.065Z" fill="#545759"/>
<path fill-rule="evenodd" clip-rule="evenodd" d="M104.823 20.712C105.399 20.712 105.987 20.6404 106.562 20.4999C107.146 20.3503 107.632 20.1889 108.006 20.0031C108.207 19.9124 108.351 19.887 108.44 19.9242C108.511 19.9559 108.584 20.0602 108.647 20.1889L109.325 21.7736C109.511 22.0583 109.445 22.2877 109.151 22.4545C108.406 22.8715 107.609 23.1516 106.745 23.2858C105.884 23.4218 105.075 23.4816 104.328 23.4816C102.296 23.4816 100.734 22.8715 99.656 21.6385C98.5707 20.4101 98.0244 18.5707 98.0244 16.1356C98.0244 14.9905 98.1832 13.9489 98.4963 13.0205C98.8003 12.0867 99.2449 11.2871 99.8229 10.6262C100.389 9.95718 101.077 9.45039 101.895 9.09955C102.702 8.74235 103.608 8.56557 104.628 8.56557C105.38 8.56557 106.1 8.64535 106.801 8.78949C107.487 8.94996 108.156 9.19655 108.777 9.51386C108.941 9.61267 109.038 9.69789 109.067 9.79399C109.109 9.88284 109.081 10.0188 109.002 10.2001L108.309 11.8102C108.239 11.9444 108.156 12.0423 108.086 12.0813C108 12.1194 107.846 12.0867 107.632 11.9952C107.193 11.832 106.745 11.6996 106.268 11.5836C105.797 11.4485 105.296 11.4005 104.758 11.4005C104.141 11.4005 103.613 11.5265 103.174 11.793C102.716 12.0577 102.356 12.4059 102.082 12.8437C101.805 13.278 101.594 13.783 101.464 14.3559C101.337 14.9207 101.277 15.5182 101.277 16.1356C101.277 16.7765 101.327 17.3685 101.441 17.9161C101.544 18.4764 101.739 18.965 102.005 19.382C102.263 19.7936 102.619 20.1227 103.067 20.3593C103.523 20.5996 104.114 20.712 104.823 20.712Z" fill="#545759"/>
<path fill-rule="evenodd" clip-rule="evenodd" d="M66.6884 12.7305C67.1884 12.939 67.6367 13.201 68.0205 13.5383C68.3944 13.871 68.712 14.2445 68.9452 14.6642C69.1784 15.0786 69.3608 15.5346 69.4824 16.0024C69.6049 16.4792 69.6594 16.9579 69.6594 17.4502C69.6594 18.3006 69.4824 19.0784 69.1548 19.7819C68.8191 20.4999 68.3663 21.1028 67.7864 21.6123C67.212 22.1146 66.5387 22.5071 65.7774 22.7718C64.9924 23.052 64.1694 23.1862 63.2738 23.1862H56.6232C56.0479 23.1862 55.6404 23.0746 55.4263 22.8344C55.2058 22.5769 55.0996 22.188 55.0996 21.6386V5.65006C55.0996 5.12515 55.2058 4.72443 55.4263 4.48147C55.6404 4.22581 56.0479 4.09798 56.6232 4.09798L62.9498 4.07079C63.7874 4.07079 64.5659 4.15238 65.2964 4.34729C66.0196 4.52589 66.6512 4.80421 67.1548 5.19133C67.683 5.56847 68.0868 6.06165 68.3899 6.66181C68.6784 7.26378 68.8418 7.9818 68.8418 8.81314C68.8418 9.62453 68.6321 10.3734 68.2265 11.037C67.8136 11.6997 67.3 12.1938 66.6884 12.5437V12.7305ZM66.2213 17.2317C66.2213 16.3595 65.9409 15.6415 65.3901 15.0876C64.8293 14.5427 64.0153 14.2599 62.95 14.2599H58.4219V20.1898H62.9228C63.577 20.1898 64.1151 20.1073 64.5244 19.9088C64.9554 19.7184 65.2866 19.4773 65.5443 19.1826C65.7975 18.8934 65.9781 18.5698 66.0716 18.228C66.175 17.8663 66.2213 17.5381 66.2213 17.2317ZM58.4219 11.5128H62.8375C63.0943 11.5128 63.371 11.4847 63.675 11.414C63.9745 11.3442 64.2549 11.2336 64.5017 11.0641C64.7594 10.8864 64.9727 10.6434 65.1269 10.3461C65.2966 10.0442 65.3765 9.65343 65.3765 9.16931C65.3765 8.50932 65.166 7.99619 64.7259 7.61451C64.3148 7.2265 63.7313 7.03702 63.0072 7.03702H58.4219V11.5128Z" fill="#545759"/>
<path fill-rule="evenodd" clip-rule="evenodd" d="M30.7255 47C22.8386 47 0 40.8558 0 33.2754C0 25.7026 22.8386 19.5602 30.7255 19.5602C38.6031 19.5602 44.9939 25.7026 44.9939 33.2754C44.9939 40.8558 38.6031 47 30.7255 47Z" fill="#007A33"/>
<path fill-rule="evenodd" clip-rule="evenodd" d="M23.6872 24.7171C18.5617 21.7181 6.21419 9.03879 9.33569 4.10983C12.448 -0.819123 29.8378 3.85489 34.9726 6.86325C40.0981 9.84612 41.742 16.2793 38.6205 21.2082C35.5082 26.1465 28.822 27.7178 23.6872 24.7171Z" fill="#C3D600"/>
<path fill-rule="evenodd" clip-rule="evenodd" d="M19.3721 21.4028C21.0058 22.8677 22.5325 24.0395 23.6906 24.7171C28.6643 27.6237 35.0938 26.2406 38.3207 21.6629C36.1213 20.3309 33.5174 19.5602 30.727 19.5602C28.1204 19.5602 23.8807 20.2311 19.3721 21.4028Z" fill="#154734"/>
</svg>
